<?xml version="1.0" encoding="utf-8"?>
<svg viewBox="0 0 65.143 61.143" fill="none" xmlns="http://www.w3.org/2000/svg">
  <defs>
    <filter id="filter0_d_1_99" x="0" y="0" width="95" height="91" filterUnits="userSpaceOnUse" color-interpolation-filters="sRGB">
      <feFlood flood-opacity="0" result="BackgroundImageFix"/>
      <feOffset/>
      <feGaussianBlur stdDeviation="7.5"/>
      <feComposite in2="hardAlpha" operator="out"/>
      <feBlend mode="normal" in2="BackgroundImageFix" result="effect1_dropShadow_1_99"/>
      <feBlend mode="normal" in="SourceGraphic" in2="effect1_dropShadow_1_99" result="shape"/>
    </filter>
    <clipPath id="clip0_1_99">
      <rect width="24" height="24" fill="white" transform="translate(36 21)"/>
    </clipPath>
  </defs>
  <g filter="url(#filter0_d_1_99)" transform="matrix(1, 0, 0, 1, -14.928446769714355, -14.928446769714355)">
    <ellipse cx="47.5" cy="45.5" rx="32.5" ry="30.5" fill="white"/>
    <path d="M78.25 45.5C78.25 61.2751 64.5891 74.25 47.5 74.25C30.4109 74.25 16.75 61.2751 16.75 45.5C16.75 29.7249 30.4109 16.75 47.5 16.75C64.5891 16.75 78.25 29.7249 78.25 45.5Z" stroke="#25C1E4" stroke-width="3.5"/>
  </g>
  <g clip-path="url(#clip0_1_99)" transform="matrix(1, 0, 0, 1, -14.928446769714355, -14.928446769714355)">
    <path d="M48 23C53.5228 23 58 27.4771 58 33C58 38.5228 53.5228 43 48 43C42.4771 43 38 38.5228 38 33C38 27.4771 42.4771 23 48 23ZM48 25C43.5817 25 40 28.5817 40 33C40 37.4183 43.5817 41 48 41C52.4183 41 56 37.4183 56 33C56 28.5817 52.4183 25 48 25ZM48 28C48.5523 28 49 28.4477 49 29V32H52C52.5523 32 53 32.4477 53 33C53 33.5523 52.5523 34 52 34H49V37C49 37.5523 48.5523 38 48 38C47.4477 38 47 37.5523 47 37V34H44C43.4477 34 43 33.5523 43 33C43 32.4477 43.4477 32 44 32H47V29C47 28.4477 47.4477 28 48 28Z" fill="#25C1E4"/>
  </g>
  <path d="M 13.35 38.071 L 16.49 31.021 L 17.38 31.021 L 20.57 38.071 L 19.5 38.071 L 18.63 36.071 L 19.07 36.351 L 14.8 36.351 L 15.27 36.071 L 14.4 38.071 L 13.35 38.071 Z M 16.92 32.161 L 15.4 35.751 L 15.16 35.521 L 18.71 35.521 L 18.51 35.751 L 16.96 32.161 L 16.92 32.161 Z M 23.633 40.311 C 23.18 40.311 22.767 40.258 22.393 40.151 C 22.027 40.045 21.697 39.885 21.403 39.671 L 21.653 38.931 C 21.86 39.071 22.063 39.181 22.263 39.261 C 22.463 39.348 22.673 39.411 22.893 39.451 C 23.113 39.491 23.34 39.511 23.573 39.511 C 24.053 39.511 24.413 39.388 24.653 39.141 C 24.9 38.901 25.023 38.551 25.023 38.091 L 25.023 36.741 L 25.123 36.741 C 25.017 37.115 24.797 37.411 24.463 37.631 C 24.137 37.845 23.757 37.951 23.323 37.951 C 22.863 37.951 22.463 37.851 22.123 37.651 C 21.79 37.445 21.53 37.155 21.343 36.781 C 21.163 36.401 21.073 35.955 21.073 35.441 C 21.073 34.928 21.163 34.485 21.343 34.111 C 21.53 33.738 21.79 33.451 22.123 33.251 C 22.463 33.045 22.863 32.941 23.323 32.941 C 23.763 32.941 24.143 33.051 24.463 33.271 C 24.79 33.485 25.007 33.778 25.113 34.151 L 25.023 34.071 L 25.113 33.031 L 26.093 33.031 C 26.067 33.238 26.047 33.445 26.033 33.651 C 26.02 33.851 26.013 34.048 26.013 34.241 L 26.013 37.971 C 26.013 38.731 25.81 39.311 25.403 39.711 C 25.003 40.111 24.413 40.311 23.633 40.311 Z M 23.563 37.161 C 24.003 37.161 24.353 37.011 24.613 36.711 C 24.88 36.411 25.013 35.988 25.013 35.441 C 25.013 34.895 24.88 34.475 24.613 34.181 C 24.353 33.888 24.003 33.741 23.563 33.741 C 23.11 33.741 22.75 33.888 22.483 34.181 C 22.223 34.475 22.093 34.895 22.093 35.441 C 22.093 35.988 22.223 36.411 22.483 36.711 C 22.75 37.011 23.11 37.161 23.563 37.161 Z M 27.466 38.071 L 27.466 34.281 C 27.466 34.075 27.46 33.868 27.446 33.661 C 27.44 33.448 27.426 33.238 27.406 33.031 L 28.386 33.031 L 28.496 34.331 L 28.336 34.331 C 28.403 34.018 28.516 33.758 28.676 33.551 C 28.836 33.345 29.03 33.191 29.256 33.091 C 29.49 32.991 29.733 32.941 29.986 32.941 C 30.093 32.941 30.183 32.948 30.256 32.961 C 30.33 32.968 30.403 32.981 30.476 33.001 L 30.466 33.901 C 30.353 33.855 30.253 33.828 30.166 33.821 C 30.086 33.808 29.986 33.801 29.866 33.801 C 29.573 33.801 29.323 33.868 29.116 34.001 C 28.91 34.128 28.753 34.301 28.646 34.521 C 28.54 34.741 28.486 34.978 28.486 35.231 L 28.486 38.071 L 27.466 38.071 Z M 33.518 38.161 C 32.704 38.161 32.064 37.931 31.598 37.471 C 31.131 37.011 30.898 36.375 30.898 35.561 C 30.898 35.035 30.998 34.575 31.198 34.181 C 31.404 33.788 31.688 33.485 32.048 33.271 C 32.414 33.051 32.838 32.941 33.318 32.941 C 33.791 32.941 34.188 33.041 34.508 33.241 C 34.828 33.441 35.071 33.725 35.238 34.091 C 35.404 34.451 35.488 34.878 35.488 35.371 L 35.488 35.691 L 31.688 35.691 L 31.688 35.111 L 34.798 35.111 L 34.628 35.241 C 34.628 34.741 34.514 34.355 34.288 34.081 C 34.068 33.801 33.748 33.661 33.328 33.661 C 32.861 33.661 32.501 33.825 32.248 34.151 C 31.994 34.471 31.868 34.915 31.868 35.481 L 31.868 35.581 C 31.868 36.175 32.011 36.621 32.298 36.921 C 32.591 37.221 33.004 37.371 33.538 37.371 C 33.831 37.371 34.104 37.331 34.358 37.251 C 34.618 37.165 34.864 37.025 35.098 36.831 L 35.428 37.521 C 35.194 37.728 34.911 37.888 34.578 38.001 C 34.244 38.108 33.891 38.161 33.518 38.161 Z M 38.917 40.311 C 38.463 40.311 38.05 40.258 37.677 40.151 C 37.31 40.045 36.98 39.885 36.687 39.671 L 36.937 38.931 C 37.143 39.071 37.347 39.181 37.547 39.261 C 37.747 39.348 37.957 39.411 38.177 39.451 C 38.397 39.491 38.623 39.511 38.857 39.511 C 39.337 39.511 39.697 39.388 39.937 39.141 C 40.183 38.901 40.307 38.551 40.307 38.091 L 40.307 36.741 L 40.407 36.741 C 40.3 37.115 40.08 37.411 39.747 37.631 C 39.42 37.845 39.04 37.951 38.607 37.951 C 38.147 37.951 37.747 37.851 37.407 37.651 C 37.073 37.445 36.813 37.155 36.627 36.781 C 36.447 36.401 36.357 35.955 36.357 35.441 C 36.357 34.928 36.447 34.485 36.627 34.111 C 36.813 33.738 37.073 33.451 37.407 33.251 C 37.747 33.045 38.147 32.941 38.607 32.941 C 39.047 32.941 39.427 33.051 39.747 33.271 C 40.073 33.485 40.29 33.778 40.397 34.151 L 40.307 34.071 L 40.397 33.031 L 41.377 33.031 C 41.35 33.238 41.33 33.445 41.317 33.651 C 41.303 33.851 41.297 34.048 41.297 34.241 L 41.297 37.971 C 41.297 38.731 41.093 39.311 40.687 39.711 C 40.287 40.111 39.697 40.311 38.917 40.311 Z M 38.847 37.161 C 39.287 37.161 39.637 37.011 39.897 36.711 C 40.163 36.411 40.297 35.988 40.297 35.441 C 40.297 34.895 40.163 34.475 39.897 34.181 C 39.637 33.888 39.287 33.741 38.847 33.741 C 38.393 33.741 38.033 33.888 37.767 34.181 C 37.507 34.475 37.377 34.895 37.377 35.441 C 37.377 35.988 37.507 36.411 37.767 36.711 C 38.033 37.011 38.393 37.161 38.847 37.161 Z M 44.7 38.161 C 44.253 38.161 43.863 38.058 43.53 37.851 C 43.196 37.645 42.936 37.345 42.75 36.951 C 42.57 36.558 42.48 36.091 42.48 35.551 C 42.48 35.005 42.57 34.538 42.75 34.151 C 42.936 33.765 43.196 33.468 43.53 33.261 C 43.863 33.048 44.253 32.941 44.7 32.941 C 45.14 32.941 45.523 33.051 45.85 33.271 C 46.176 33.491 46.393 33.791 46.5 34.171 L 46.39 34.171 L 46.49 33.031 L 47.47 33.031 C 47.45 33.238 47.43 33.445 47.41 33.651 C 47.396 33.851 47.39 34.048 47.39 34.241 L 47.39 38.071 L 46.38 38.071 L 46.38 36.951 L 46.49 36.951 C 46.383 37.325 46.163 37.621 45.83 37.841 C 45.503 38.055 45.126 38.161 44.7 38.161 Z M 44.95 37.371 C 45.383 37.371 45.73 37.218 45.99 36.911 C 46.256 36.605 46.39 36.151 46.39 35.551 C 46.39 34.951 46.256 34.501 45.99 34.201 C 45.73 33.895 45.383 33.741 44.95 33.741 C 44.51 33.741 44.156 33.895 43.89 34.201 C 43.63 34.501 43.5 34.951 43.5 35.551 C 43.5 36.151 43.63 36.605 43.89 36.911 C 44.15 37.218 44.503 37.371 44.95 37.371 Z M 48.843 38.071 L 48.843 34.281 C 48.843 34.075 48.837 33.868 48.823 33.661 C 48.817 33.448 48.803 33.238 48.783 33.031 L 49.763 33.031 L 49.873 34.331 L 49.713 34.331 C 49.78 34.018 49.893 33.758 50.053 33.551 C 50.213 33.345 50.407 33.191 50.633 33.091 C 50.867 32.991 51.11 32.941 51.363 32.941 C 51.47 32.941 51.56 32.948 51.633 32.961 C 51.707 32.968 51.78 32.981 51.853 33.001 L 51.843 33.901 C 51.73 33.855 51.63 33.828 51.543 33.821 C 51.463 33.808 51.363 33.801 51.243 33.801 C 50.95 33.801 50.7 33.868 50.493 34.001 C 50.287 34.128 50.13 34.301 50.023 34.521 C 49.917 34.741 49.863 34.978 49.863 35.231 L 49.863 38.071 L 48.843 38.071 Z M 15.974 48.161 C 15.16 48.161 14.52 47.931 14.054 47.471 C 13.587 47.011 13.354 46.375 13.354 45.561 C 13.354 45.035 13.454 44.575 13.654 44.181 C 13.86 43.788 14.144 43.485 14.504 43.271 C 14.87 43.051 15.294 42.941 15.774 42.941 C 16.247 42.941 16.644 43.041 16.964 43.241 C 17.284 43.441 17.527 43.725 17.694 44.091 C 17.86 44.451 17.944 44.878 17.944 45.371 L 17.944 45.691 L 14.144 45.691 L 14.144 45.111 L 17.254 45.111 L 17.084 45.241 C 17.084 44.741 16.97 44.355 16.744 44.081 C 16.524 43.801 16.204 43.661 15.784 43.661 C 15.317 43.661 14.957 43.825 14.704 44.151 C 14.45 44.471 14.324 44.915 14.324 45.481 L 14.324 45.581 C 14.324 46.175 14.467 46.621 14.754 46.921 C 15.047 47.221 15.46 47.371 15.994 47.371 C 16.287 47.371 16.56 47.331 16.814 47.251 C 17.074 47.165 17.32 47.025 17.554 46.831 L 17.884 47.521 C 17.65 47.728 17.367 47.888 17.034 48.001 C 16.7 48.108 16.347 48.161 15.974 48.161 Z M 20.833 48.161 C 20.413 48.161 20.026 48.108 19.673 48.001 C 19.319 47.895 19.026 47.745 18.793 47.551 L 19.103 46.861 C 19.349 47.048 19.623 47.188 19.923 47.281 C 20.223 47.375 20.529 47.421 20.843 47.421 C 21.209 47.421 21.486 47.358 21.673 47.231 C 21.859 47.098 21.953 46.918 21.953 46.691 C 21.953 46.518 21.893 46.378 21.773 46.271 C 21.659 46.165 21.469 46.085 21.203 46.031 L 20.243 45.841 C 19.816 45.748 19.493 45.588 19.273 45.361 C 19.053 45.135 18.943 44.845 18.943 44.491 C 18.943 44.191 19.023 43.925 19.183 43.691 C 19.349 43.458 19.583 43.275 19.883 43.141 C 20.189 43.008 20.546 42.941 20.953 42.941 C 21.326 42.941 21.673 42.995 21.993 43.101 C 22.313 43.208 22.579 43.361 22.793 43.561 L 22.473 44.231 C 22.266 44.058 22.033 43.925 21.773 43.831 C 21.513 43.731 21.249 43.681 20.983 43.681 C 20.609 43.681 20.333 43.751 20.153 43.891 C 19.973 44.031 19.883 44.215 19.883 44.441 C 19.883 44.615 19.936 44.758 20.043 44.871 C 20.156 44.978 20.333 45.061 20.573 45.121 L 21.533 45.311 C 21.986 45.405 22.326 45.558 22.553 45.771 C 22.779 45.985 22.893 46.271 22.893 46.631 C 22.893 46.945 22.806 47.218 22.633 47.451 C 22.459 47.685 22.219 47.861 21.913 47.981 C 21.606 48.101 21.246 48.161 20.833 48.161 Z M 25.994 48.161 C 25.448 48.161 25.034 48.015 24.754 47.721 C 24.474 47.421 24.334 46.975 24.334 46.381 L 24.334 43.811 L 23.354 43.811 L 23.354 43.031 L 24.334 43.031 L 24.334 41.701 L 25.344 41.431 L 25.344 43.031 L 26.744 43.031 L 26.744 43.811 L 25.344 43.811 L 25.344 46.291 C 25.344 46.665 25.411 46.931 25.544 47.091 C 25.678 47.251 25.871 47.331 26.124 47.331 C 26.251 47.331 26.361 47.321 26.454 47.301 C 26.554 47.275 26.644 47.245 26.724 47.211 L 26.724 48.031 C 26.624 48.071 26.508 48.101 26.374 48.121 C 26.241 48.148 26.114 48.161 25.994 48.161 Z M 29.597 48.161 C 29.15 48.161 28.76 48.058 28.427 47.851 C 28.094 47.645 27.834 47.345 27.647 46.951 C 27.467 46.558 27.377 46.091 27.377 45.551 C 27.377 45.005 27.467 44.538 27.647 44.151 C 27.834 43.765 28.094 43.468 28.427 43.261 C 28.76 43.048 29.15 42.941 29.597 42.941 C 30.037 42.941 30.42 43.051 30.747 43.271 C 31.074 43.491 31.29 43.791 31.397 44.171 L 31.287 44.171 L 31.387 43.031 L 32.367 43.031 C 32.347 43.238 32.327 43.445 32.307 43.651 C 32.294 43.851 32.287 44.048 32.287 44.241 L 32.287 48.071 L 31.277 48.071 L 31.277 46.951 L 31.387 46.951 C 31.28 47.325 31.06 47.621 30.727 47.841 C 30.4 48.055 30.024 48.161 29.597 48.161 Z M 29.847 47.371 C 30.28 47.371 30.627 47.218 30.887 46.911 C 31.154 46.605 31.287 46.151 31.287 45.551 C 31.287 44.951 31.154 44.501 30.887 44.201 C 30.627 43.895 30.28 43.741 29.847 43.741 C 29.407 43.741 29.054 43.895 28.787 44.201 C 28.527 44.501 28.397 44.951 28.397 45.551 C 28.397 46.151 28.527 46.605 28.787 46.911 C 29.047 47.218 29.4 47.371 29.847 47.371 Z M 35.971 48.161 C 35.464 48.161 35.021 48.058 34.641 47.851 C 34.267 47.638 33.977 47.335 33.771 46.941 C 33.571 46.541 33.471 46.068 33.471 45.521 C 33.471 44.981 33.574 44.518 33.781 44.131 C 33.987 43.745 34.277 43.451 34.651 43.251 C 35.024 43.045 35.464 42.941 35.971 42.941 C 36.297 42.941 36.614 42.998 36.921 43.111 C 37.227 43.218 37.481 43.371 37.681 43.571 L 37.351 44.281 C 37.164 44.101 36.954 43.968 36.721 43.881 C 36.487 43.788 36.261 43.741 36.041 43.741 C 35.561 43.741 35.184 43.895 34.911 44.201 C 34.637 44.508 34.501 44.951 34.501 45.531 C 34.501 46.118 34.637 46.568 34.911 46.881 C 35.184 47.195 35.561 47.351 36.041 47.351 C 36.254 47.351 36.477 47.311 36.711 47.231 C 36.944 47.145 37.157 47.008 37.351 46.821 L 37.681 47.531 C 37.474 47.731 37.214 47.888 36.901 48.001 C 36.594 48.108 36.284 48.161 35.971 48.161 Z M 38.751 48.071 L 38.751 43.031 L 39.761 43.031 L 39.761 48.071 L 38.751 48.071 Z M 38.671 41.981 L 38.671 40.931 L 39.841 40.931 L 39.841 41.981 L 38.671 41.981 Z M 43.401 48.161 C 42.901 48.161 42.468 48.058 42.101 47.851 C 41.735 47.638 41.451 47.338 41.251 46.951 C 41.051 46.558 40.951 46.091 40.951 45.551 C 40.951 45.011 41.051 44.548 41.251 44.161 C 41.451 43.768 41.735 43.468 42.101 43.261 C 42.468 43.048 42.901 42.941 43.401 42.941 C 43.901 42.941 44.335 43.048 44.701 43.261 C 45.075 43.468 45.361 43.768 45.561 44.161 C 45.768 44.548 45.871 45.011 45.871 45.551 C 45.871 46.091 45.768 46.558 45.561 46.951 C 45.361 47.338 45.075 47.638 44.701 47.851 C 44.335 48.058 43.901 48.161 43.401 48.161 Z M 43.401 47.371 C 43.841 47.371 44.191 47.218 44.451 46.911 C 44.711 46.605 44.841 46.151 44.841 45.551 C 44.841 44.951 44.711 44.501 44.451 44.201 C 44.191 43.895 43.841 43.741 43.401 43.741 C 42.968 43.741 42.621 43.895 42.361 44.201 C 42.101 44.501 41.971 44.951 41.971 45.551 C 41.971 46.151 42.098 46.605 42.351 46.911 C 42.611 47.218 42.961 47.371 43.401 47.371 Z M 43.061 42.541 L 44.091 40.521 L 45.121 40.521 L 43.761 42.541 L 43.061 42.541 Z M 47.052 48.071 L 47.052 44.241 C 47.052 44.048 47.042 43.851 47.022 43.651 C 47.008 43.445 46.992 43.238 46.972 43.031 L 47.952 43.031 L 48.042 44.091 L 47.922 44.091 C 48.075 43.718 48.312 43.435 48.632 43.241 C 48.952 43.041 49.322 42.941 49.742 42.941 C 50.335 42.941 50.782 43.105 51.082 43.431 C 51.388 43.758 51.542 44.265 51.542 44.951 L 51.542 48.071 L 50.532 48.071 L 50.532 45.011 C 50.532 44.565 50.442 44.245 50.262 44.051 C 50.088 43.851 49.822 43.751 49.462 43.751 C 49.035 43.751 48.695 43.885 48.442 44.151 C 48.188 44.411 48.062 44.765 48.062 45.211 L 48.062 48.071 L 47.052 48.071 Z" fill="#1C4156" transform="matrix(1, 0, 0, 1, 0, 1.7763568394002505e-15)"/>
</svg>