<svg width="31" height="38" viewBox="0 0 31 38" fill="none" xmlns="http://www.w3.org/2000/svg">
<g filter="url(#filter0_d_11_18)">
<path d="M26 12.4753C26 16.2972 22.1813 22.0013 19.1498 25.9275C17.5682 27.9758 16.7774 29 15.5 29C14.2226 29 13.4318 27.9758 11.8502 25.9275C8.81866 22.0013 5 16.2972 5 12.4753C5 6.13765 9.70101 1 15.5 1C21.299 1 26 6.13765 26 12.4753Z" fill="#25C1E4"/>
<path d="M11.5625 12.9969C11.5625 15.2054 13.3254 16.8421 15.5 16.8421C17.6746 16.8421 19.4375 15.2054 19.4375 12.9969C19.4375 10.7883 17.6746 8.99791 15.5 8.99791C13.3254 8.99791 11.5625 10.7883 11.5625 12.9969Z" fill="#25C1E4"/>
<path d="M26 12.4753C26 16.2972 22.1813 22.0013 19.1498 25.9275C17.5682 27.9758 16.7774 29 15.5 29C14.2226 29 13.4318 27.9758 11.8502 25.9275C8.81866 22.0013 5 16.2972 5 12.4753C5 6.13765 9.70101 1 15.5 1C21.299 1 26 6.13765 26 12.4753Z" stroke="#F5FA06" stroke-width="1.5"/>
<path d="M11.5625 12.9969C11.5625 15.2054 13.3254 16.8421 15.5 16.8421C17.6746 16.8421 19.4375 15.2054 19.4375 12.9969C19.4375 10.7883 17.6746 8.99791 15.5 8.99791C13.3254 8.99791 11.5625 10.7883 11.5625 12.9969Z" stroke="#F5FA06" stroke-width="1.5"/>
<ellipse cx="15.5001" cy="13.1579" rx="4.9" ry="4.78947" fill="black"/>
</g>
<defs>
<filter id="filter0_d_11_18" x="0.25" y="0.25" width="30.5" height="37.5" filterUnits="userSpaceOnUse" color-interpolation-filters="sRGB">
<feFlood flood-opacity="0" result="BackgroundImageFix"/>
<feOffset dy="4"/>
<feGaussianBlur stdDeviation="2"/>
<feComposite in2="hardAlpha" operator="out"/>
<feColorMatrix type="matrix" values="0 0 0 0 0.960839 0 0 0 0 0.979948 0 0 0 0 0.0244987 0 0 0 1 0"/>
<feBlend mode="normal" in2="BackgroundImageFix" result="effect1_dropShadow_11_18"/>
<feBlend mode="normal" in="SourceGraphic" in2="effect1_dropShadow_11_18" result="shape"/>
</filter>
</defs>
</svg>
